<mxfile host="app.diagrams.net" agent="Mozilla/5.0 (Macintosh; Intel Mac OS X 10_15_7) AppleWebKit/537.36 (KHTML, like Gecko) Chrome/126.0.0.0 Safari/537.36" border="50" scale="3" compressed="false" locked="false" version="24.7.5">
  <diagram name="Blank" id="YmL12bMKpDGza6XwsDPr">
    <mxGraphModel dx="932" dy="932" grid="0" gridSize="10" guides="1" tooltips="1" connect="1" arrows="1" fold="1" page="0" pageScale="1" pageWidth="827" pageHeight="1169" background="none" math="1" shadow="0">
      <root>
        <mxCell id="X5NqExCQtvZxIxQ7pmgY-0" />
        <mxCell id="1" parent="X5NqExCQtvZxIxQ7pmgY-0" />
        <mxCell id="Gr0Zq-AI6Quabplr0KPa-179" value="Mindmap" style="swimlane;html=1;startSize=20;horizontal=1;containerType=tree;labelBackgroundColor=none;strokeColor=#D4E1F5;strokeWidth=1;fillColor=none;fontFamily=Comic Sans MS;fontSize=9;swimlaneLine=0;dashed=1;collapsible=0;swimlaneFillColor=none;" parent="1" vertex="1">
          <mxGeometry x="50" y="-121" width="832" height="561" as="geometry" />
        </mxCell>
        <mxCell id="Gr0Zq-AI6Quabplr0KPa-222" value="" style="endArrow=classic;html=1;curved=1;sourcePerimeterSpacing=10;strokeColor=#999900;targetPerimeterSpacing=7;rounded=0;fontSize=12;startSize=8;endSize=8;" parent="Gr0Zq-AI6Quabplr0KPa-179" source="Gr0Zq-AI6Quabplr0KPa-186" edge="1">
          <mxGeometry width="50" height="50" relative="1" as="geometry">
            <mxPoint x="345" y="550" as="sourcePoint" />
            <mxPoint x="338.7303102625299" y="-7" as="targetPoint" />
            <Array as="points">
              <mxPoint x="338" y="11" />
            </Array>
          </mxGeometry>
        </mxCell>
        <mxCell id="Z4hfzU6XygUPlT_a9uIF-1" value="深圳计划" style="rounded=1;whiteSpace=wrap;html=1;" vertex="1" parent="Gr0Zq-AI6Quabplr0KPa-179">
          <mxGeometry x="61" y="209" width="47" height="83" as="geometry" />
        </mxCell>
        <mxCell id="Z4hfzU6XygUPlT_a9uIF-2" value="" style="edgeStyle=orthogonalEdgeStyle;rounded=1;orthogonalLoop=1;jettySize=auto;html=1;shadow=1;curved=0;strokeColor=#7C3BFF;" edge="1" source="Z4hfzU6XygUPlT_a9uIF-1" target="Z4hfzU6XygUPlT_a9uIF-3" parent="Gr0Zq-AI6Quabplr0KPa-179">
          <mxGeometry relative="1" as="geometry" />
        </mxCell>
        <mxCell id="Z4hfzU6XygUPlT_a9uIF-3" value="找工作" style="rounded=1;whiteSpace=wrap;html=1;fillColor=#d5e8d4;strokeColor=#82b366;" vertex="1" parent="Gr0Zq-AI6Quabplr0KPa-179">
          <mxGeometry x="117" y="114" width="120" height="60" as="geometry" />
        </mxCell>
        <mxCell id="Z4hfzU6XygUPlT_a9uIF-25" value="" style="edgeStyle=orthogonalEdgeStyle;shape=connector;curved=0;rounded=1;orthogonalLoop=1;jettySize=auto;html=1;" edge="1" source="Z4hfzU6XygUPlT_a9uIF-1" target="Z4hfzU6XygUPlT_a9uIF-26" parent="Gr0Zq-AI6Quabplr0KPa-179">
          <mxGeometry relative="1" as="geometry" />
        </mxCell>
        <mxCell id="Z4hfzU6XygUPlT_a9uIF-26" value="租房" style="rounded=1;whiteSpace=wrap;html=1;fillColor=#f8cecc;strokeColor=#b85450;" vertex="1" parent="Gr0Zq-AI6Quabplr0KPa-179">
          <mxGeometry x="103" y="362" width="122" height="83" as="geometry" />
        </mxCell>
        <mxCell id="Z4hfzU6XygUPlT_a9uIF-29" value="" style="edgeStyle=orthogonalEdgeStyle;rounded=1;orthogonalLoop=1;jettySize=auto;html=1;shadow=1;curved=0;strokeColor=#7C3BFF;" edge="1" target="Z4hfzU6XygUPlT_a9uIF-30" source="Z4hfzU6XygUPlT_a9uIF-3" parent="Gr0Zq-AI6Quabplr0KPa-179">
          <mxGeometry relative="1" as="geometry">
            <mxPoint x="134" y="116" as="sourcePoint" />
          </mxGeometry>
        </mxCell>
        <mxCell id="Z4hfzU6XygUPlT_a9uIF-30" value="BOSS" style="rounded=1;whiteSpace=wrap;html=1;fillColor=#d5e8d4;strokeColor=#82b366;" vertex="1" parent="Gr0Zq-AI6Quabplr0KPa-179">
          <mxGeometry x="356" y="167" width="120" height="60" as="geometry" />
        </mxCell>
        <mxCell id="Z4hfzU6XygUPlT_a9uIF-31" value="" style="edgeStyle=orthogonalEdgeStyle;shape=connector;curved=0;rounded=1;orthogonalLoop=1;jettySize=auto;html=1;" edge="1" target="Z4hfzU6XygUPlT_a9uIF-32" source="Z4hfzU6XygUPlT_a9uIF-26" parent="Gr0Zq-AI6Quabplr0KPa-179">
          <mxGeometry relative="1" as="geometry">
            <mxPoint x="134" y="116" as="sourcePoint" />
          </mxGeometry>
        </mxCell>
        <mxCell id="Z4hfzU6XygUPlT_a9uIF-32" value="7.25-7.31" style="rounded=1;whiteSpace=wrap;html=1;fillColor=#f8cecc;strokeColor=#b85450;" vertex="1" parent="Gr0Zq-AI6Quabplr0KPa-179">
          <mxGeometry x="293" y="362" width="122" height="83" as="geometry" />
        </mxCell>
        <mxCell id="Z4hfzU6XygUPlT_a9uIF-34" value="途径" style="text;html=1;align=center;verticalAlign=middle;resizable=0;points=[];autosize=1;strokeColor=none;fillColor=none;fontFamily=Helvetica;fontSize=11;fontColor=default;labelBackgroundColor=default;" vertex="1" parent="Gr0Zq-AI6Quabplr0KPa-179">
          <mxGeometry x="271" y="172" width="40" height="25" as="geometry" />
        </mxCell>
        <mxCell id="Z4hfzU6XygUPlT_a9uIF-33" value="青旅" style="text;html=1;align=center;verticalAlign=middle;resizable=0;points=[];autosize=1;strokeColor=none;fillColor=none;fontFamily=Helvetica;fontSize=11;fontColor=default;labelBackgroundColor=default;" vertex="1" parent="Gr0Zq-AI6Quabplr0KPa-179">
          <mxGeometry x="239" y="370" width="40" height="25" as="geometry" />
        </mxCell>
      </root>
    </mxGraphModel>
  </diagram>
</mxfile>
